<svg width="512" height="512" viewBox="0 0 512 512" fill="none" xmlns="http://www.w3.org/2000/svg">
  <rect width="512" height="512" rx="64" fill="#000000"/>
  <path d="M128 192C128 174.327 142.327 160 160 160H352C369.673 160 384 174.327 384 192V320C384 337.673 369.673 352 352 352H160C142.327 352 128 337.673 128 320V192Z" fill="white"/>
  <circle cx="192" cy="224" r="16" fill="#000000"/>
  <circle cx="256" cy="224" r="16" fill="#000000"/>
  <circle cx="320" cy="224" r="16" fill="#000000"/>
  <rect x="160" y="272" width="192" height="8" rx="4" fill="#000000"/>
  <rect x="160" y="296" width="128" height="8" rx="4" fill="#000000"/>
  <path d="M256 384L240 400H272L256 384Z" fill="#000000"/>
</svg>